<svg width="24" height="25" viewBox="0 0 24 25" fill="none" xmlns="http://www.w3.org/2000/svg">
<path d="M21.8055 10.3615H21V10.32H12V14.32H17.6515C16.827 16.6485 14.6115 18.32 12 18.32C8.6865 18.32 6 15.6335 6 12.32C6 9.00651 8.6865 6.32001 12 6.32001C13.5295 6.32001 14.921 6.89701 15.9805 7.83951L18.809 5.01101C17.023 3.34651 14.634 2.32001 12 2.32001C6.4775 2.32001 2 6.79751 2 12.32C2 17.8425 6.4775 22.32 12 22.32C17.5225 22.32 22 17.8425 22 12.32C22 11.6495 21.931 10.995 21.8055 10.3615Z" fill="#FFC107"/>
<path d="M3.15332 7.66551L6.43882 10.075C7.32782 7.87401 9.48082 6.32001 12.0003 6.32001C13.5298 6.32001 14.9213 6.89701 15.9808 7.83951L18.8093 5.01101C17.0233 3.34651 14.6343 2.32001 12.0003 2.32001C8.15932 2.32001 4.82832 4.48851 3.15332 7.66551Z" fill="#FF3D00"/>
<path d="M12.0002 22.32C14.5832 22.32 16.9302 21.3315 18.7047 19.724L15.6097 17.105C14.5721 17.8945 13.3039 18.3214 12.0002 18.32C9.39916 18.32 7.19066 16.6615 6.35866 14.347L3.09766 16.8595C4.75266 20.098 8.11366 22.32 12.0002 22.32Z" fill="#4CAF50"/>
<path d="M21.8055 10.3615H21V10.32H12V14.32H17.6515C17.2571 15.4282 16.5467 16.3966 15.608 17.1055L15.6095 17.1045L18.7045 19.7235C18.4855 19.9225 22 17.32 22 12.32C22 11.6495 21.931 10.995 21.8055 10.3615Z" fill="#1976D2"/>
</svg>
