<svg width="489" height="639" viewBox="0 0 489 639" fill="none" xmlns="http://www.w3.org/2000/svg">
<path d="M230.677 276.151C225.738 276.146 220.896 277.385 216.694 279.726C212.492 282.068 209.097 285.42 206.889 289.407C191.456 317.263 158.344 349.073 135.022 364.847C132.231 366.737 129.88 369.104 128.103 371.813C126.326 374.523 125.158 377.522 124.665 380.639C124.172 383.756 124.365 386.93 125.231 389.979C126.098 393.029 127.622 395.895 129.716 398.414C131.81 400.932 134.433 403.054 137.435 404.657C140.437 406.261 143.761 407.315 147.214 407.76C150.668 408.204 154.186 408.031 157.565 407.249C160.945 406.467 164.121 405.092 166.911 403.202C194.896 384.252 234.223 347.264 254.425 310.838C256.448 307.184 257.403 303.125 257.199 299.044C256.996 294.964 255.64 290.998 253.261 287.523C250.882 284.048 247.559 281.179 243.606 279.189C239.654 277.199 235.203 276.153 230.677 276.151Z" fill="#B562FE"/>
<path d="M165.451 400.877C191.842 386.494 228.274 354.516 254.373 310.994C256.915 306.418 257.766 301.228 256.803 296.183C255.84 291.138 253.113 286.504 249.02 282.959C229.124 306.032 202.999 332.617 173.381 321.854C175.426 317.047 176.807 315.801 188.389 296.336C200.648 274.066 203.504 246.018 198.018 221.975C172.996 258.891 139.99 253.797 130.401 378.38C139.14 405.072 154.56 408.992 165.451 400.877Z" fill="#A037FC"/>
<path d="M310.365 252.179C305.772 252.176 301.257 253.248 297.26 255.29C293.263 257.332 289.921 260.274 287.56 263.829C259.549 305.96 229.068 333.336 162.088 376.509C156.628 380.297 153.011 385.849 151.998 391.995C150.985 398.142 152.655 404.403 156.656 409.461C160.657 414.518 166.677 417.977 173.448 419.108C180.219 420.239 187.212 418.954 192.954 415.524C265.831 368.551 301.201 336.5 333.117 288.484C335.534 284.849 336.84 280.699 336.9 276.459C336.961 272.219 335.774 268.041 333.461 264.35C331.148 260.659 327.792 257.588 323.734 255.45C319.677 253.312 315.064 252.183 310.365 252.179Z" fill="#B562FE"/>
<path d="M333.157 288.496C336.706 283.117 337.784 276.699 336.158 270.613C306.739 300.015 270.546 352.585 204.018 333.228C189.129 332.94 176.525 338.609 170.575 347.647C165.713 355.006 168.21 364.259 178.384 378.607C265.38 377.708 304.508 346.736 333.157 288.496Z" fill="#A037FC"/>
<path d="M396.964 258.172C390.164 258.172 383.377 260.509 378.183 265.196C341.552 298.241 300.206 328.758 235.431 370.517C229.821 374.253 226.064 379.831 224.971 386.045C223.878 392.259 225.536 398.612 229.587 403.733C233.639 408.854 239.759 412.332 246.627 413.417C253.495 414.502 260.56 413.106 266.298 409.531C333.61 366.13 376.922 334.139 415.744 299.104C419.463 295.752 421.996 291.48 423.023 286.829C424.05 282.177 423.525 277.356 421.514 272.973C419.504 268.591 416.098 264.846 411.728 262.211C407.358 259.576 402.22 258.171 396.964 258.172Z" fill="#B562FE"/>
<path d="M423.326 284.133C395.368 286.554 368.206 292.99 342.36 303.598L319.542 312.959C296.02 330.423 268.885 348.965 235.442 370.516C229.832 374.252 226.075 379.83 224.982 386.044C223.889 392.258 225.547 398.611 229.598 403.732C233.65 408.853 239.77 412.331 246.638 413.416C253.506 414.5 260.571 413.105 266.309 409.53C333.621 366.129 376.932 334.138 415.755 299.103C420.377 294.92 422.821 289.586 423.326 284.133Z" fill="#A037FC"/>
<path d="M469.723 326.9C469.723 312.564 456.84 300.95 440.955 300.95C407.392 300.95 374.214 307.434 343.666 319.972L305.507 335.625C286.111 343.584 265.088 347.803 243.782 348.011C222.477 348.219 201.357 344.413 181.774 336.836C177.898 335.343 174.416 333.126 171.557 330.331C168.699 327.536 166.528 324.227 165.19 320.62C163.851 317.014 163.374 313.192 163.79 309.407C164.205 305.622 165.505 301.96 167.603 298.661L183.315 273.85C196.71 252.68 201.173 227.853 195.88 203.947C195.195 200.862 193.826 197.934 191.854 195.34C189.882 192.745 187.349 190.537 184.407 188.85C181.464 187.162 178.174 186.029 174.733 185.52C171.293 185.01 167.774 185.134 164.388 185.884C159.992 186.855 156.645 190.139 155.397 194.059L144.32 229.034L71.2567 308.154C54.0085 326.838 30.6203 340.087 4.47596 345.981L0 346.988V465.494L14.2912 469.916C14.2912 469.916 101.964 440.071 119.005 438.981L245.952 430.614C268.239 429.176 381.24 374.592 381.24 374.592C396.54 366.921 472.047 359.681 472.047 347C472.047 339.749 469.723 326.348 469.723 326.9Z" fill="#B562FE"/>
<path d="M469.537 325.293C469.577 325.832 469.71 326.348 469.71 326.899C469.711 333.044 467.295 338.99 462.893 343.679C458.49 348.367 452.387 351.493 445.67 352.501L416.105 356.948C398.838 359.549 382.196 364.799 366.896 372.47L300.128 405.947C280.602 415.75 258.93 421.569 236.641 422.991L110.252 431.141C93.223 432.252 76.5171 435.91 60.8172 441.965L0 465.493V485.629L69.2644 458.841C84.9564 452.765 101.666 449.106 118.699 448.017L245.088 439.867C267.377 438.445 289.049 432.627 308.575 422.823L375.343 389.346C390.639 381.666 407.284 376.415 424.552 373.824L454.117 369.377C459.344 368.587 464.228 366.508 468.228 363.37C472.228 360.232 475.189 356.157 476.785 351.596C478.38 347.035 478.548 342.164 477.269 337.523C475.99 332.881 473.314 328.649 469.537 325.293Z" fill="#A037FC"/>
<path d="M131.373 548.128C132.399 548.315 133.658 548.502 135.151 548.688C136.644 548.782 138.043 548.828 139.349 548.828C142.521 548.828 145.414 548.362 148.026 547.429C150.731 546.496 153.017 545.05 154.883 543.09C156.842 541.131 158.335 538.612 159.361 535.533C160.481 532.361 161.041 528.583 161.041 524.198C161.041 515.801 159.082 509.504 155.163 505.305C151.245 501.014 146.02 498.868 139.489 498.868C138.183 498.868 136.83 498.915 135.431 499.008C134.125 499.101 132.772 499.241 131.373 499.428V548.128ZM139.209 568.56C137.623 568.56 135.804 568.514 133.752 568.42C131.699 568.327 129.553 568.141 127.314 567.861C125.168 567.581 122.976 567.208 120.737 566.741C118.591 566.368 116.585 565.808 114.719 565.062C109.588 563.103 107.022 559.697 107.022 554.846V489.492C107.022 487.532 107.535 486.04 108.562 485.013C109.681 483.894 111.174 483.008 113.04 482.355C117.052 481.048 121.297 480.209 125.775 479.836C130.253 479.369 134.265 479.136 137.81 479.136C145.087 479.136 151.664 480.022 157.542 481.795C163.513 483.567 168.598 486.32 172.796 490.051C177.088 493.69 180.4 498.308 182.732 503.906C185.065 509.504 186.231 516.128 186.231 523.778C186.231 531.242 185.111 537.773 182.872 543.37C180.633 548.875 177.414 553.54 173.216 557.365C169.111 561.097 164.166 563.896 158.382 565.761C152.597 567.627 146.207 568.56 139.209 568.56ZM196.029 523.778C196.029 516.501 197.149 510.064 199.388 504.466C201.72 498.868 204.846 494.203 208.764 490.471C212.776 486.646 217.441 483.754 222.758 481.795C228.17 479.836 234.001 478.856 240.252 478.856C246.502 478.856 252.287 479.836 257.605 481.795C263.016 483.754 267.727 486.646 271.739 490.471C275.751 494.203 278.876 498.868 281.115 504.466C283.448 510.064 284.614 516.501 284.614 523.778C284.614 531.055 283.494 537.539 281.255 543.23C279.016 548.828 275.891 553.54 271.879 557.365C267.961 561.097 263.296 563.942 257.885 565.901C252.473 567.861 246.596 568.84 240.252 568.84C233.907 568.84 228.03 567.861 222.618 565.901C217.207 563.849 212.542 560.91 208.624 557.085C204.706 553.26 201.627 548.548 199.388 542.95C197.149 537.353 196.029 530.962 196.029 523.778ZM221.219 523.778C221.219 532.268 222.945 538.612 226.397 542.811C229.849 547.009 234.467 549.108 240.252 549.108C246.129 549.108 250.794 547.009 254.246 542.811C257.698 538.612 259.424 532.268 259.424 523.778C259.424 515.381 257.698 509.084 254.246 504.886C250.887 500.687 246.269 498.588 240.391 498.588C234.607 498.588 229.942 500.687 226.397 504.886C222.945 508.991 221.219 515.288 221.219 523.778ZM298.626 494.53C298.626 490.518 299.792 487.346 302.124 485.013C304.457 482.681 307.629 481.515 311.641 481.515H357.822C358.475 482.541 359.035 483.894 359.502 485.573C360.061 487.253 360.341 489.025 360.341 490.891C360.341 494.436 359.548 496.955 357.962 498.448C356.47 499.941 354.464 500.687 351.945 500.687H322.416V513.702H353.904C354.557 514.728 355.117 516.081 355.583 517.76C356.143 519.347 356.423 521.073 356.423 522.938C356.423 526.484 355.677 529.003 354.184 530.495C352.691 531.988 350.685 532.735 348.166 532.735H322.416V547.429H358.382C359.035 548.455 359.595 549.808 360.061 551.487C360.621 553.166 360.901 554.939 360.901 556.805C360.901 560.35 360.108 562.916 358.522 564.502C357.029 565.995 355.023 566.741 352.504 566.741H311.641C307.629 566.741 304.457 565.575 302.124 563.242C299.792 560.91 298.626 557.738 298.626 553.726V494.53ZM413.952 559.324C413.206 559.697 411.806 560.024 409.754 560.304C407.795 560.49 405.882 560.584 404.016 560.584C400.191 560.584 397.299 559.977 395.34 558.764C393.38 557.458 392.401 554.752 392.401 550.647V535.254H371.269C370.616 534.227 370.056 532.874 369.59 531.195C369.217 529.516 369.03 527.836 369.03 526.157C369.03 522.798 369.776 520.373 371.269 518.88C372.762 517.294 374.768 516.501 377.287 516.501H392.401V492.99C393.334 492.71 394.733 492.431 396.599 492.151C398.558 491.777 400.471 491.591 402.337 491.591C406.069 491.591 408.914 492.244 410.873 493.55C412.926 494.856 413.952 497.608 413.952 501.807V516.501H434.664C435.13 517.621 435.597 519.02 436.063 520.699C436.623 522.285 436.903 523.965 436.903 525.737C436.903 529.003 436.157 531.428 434.664 533.014C433.171 534.507 431.212 535.254 428.786 535.254H413.952V559.324Z" fill="#A037FC"/>
<path d="M488.559 73.6898C488.559 65.6394 481.054 59.1123 471.796 59.1123H443.179C450.585 52.7601 455.325 44.4329 455.325 34.1774C455.325 21.5496 446.985 7.83211 423.574 7.83211C392.769 7.83211 367.036 36.3531 354.945 52.341C342.846 36.3567 316.325 7.83575 285.525 7.83575C262.114 7.83575 253.773 21.5532 253.773 34.181C253.773 44.4327 258.643 52.7638 266.2 59.1159H237.097C227.839 59.1159 220.333 65.643 220.333 73.6935V117.328H237.244V212.209C237.244 220.26 244.75 226.787 254.008 226.787H455.094C464.352 226.787 471.859 220.26 471.859 212.209V117.324H488.56V73.6898H488.559ZM423.574 22.4133C433.938 22.4133 438.561 26.2 438.561 34.1813C438.561 50.3733 417.777 59.1086 398.23 59.1086H369.853C381.763 43.7257 402.727 22.4133 423.574 22.4133ZM285.524 22.4135C306.375 22.4135 328.13 43.7259 340.041 59.1052H311.655C292.108 59.1052 270.537 50.1437 270.537 33.9517C270.537 25.9741 275.16 22.4135 285.524 22.4135ZM471.795 102.747H362.828V73.6898H471.795V102.747ZM237.097 73.6898H346.064V102.747H237.097V73.6898ZM254.008 117.324H346.064V212.206H254.008V117.324ZM455.098 212.206H362.828V117.324H455.098V212.206Z" fill="#A037FC"/>
</svg>
