<svg width="58" height="64" viewBox="0 0 58 64" fill="none" xmlns="http://www.w3.org/2000/svg">
<path d="M27.9811 27.5202C27.3821 27.5198 26.7947 27.6403 26.285 27.8682C25.7753 28.0962 25.3634 28.4225 25.0956 28.8105C23.2235 31.5219 19.207 34.6182 16.3779 36.1535C16.0394 36.3375 15.7542 36.5679 15.5387 36.8316C15.3231 37.0953 15.1814 37.3872 15.1217 37.6906C15.0619 37.994 15.0852 38.303 15.1903 38.5998C15.2955 38.8967 15.4803 39.1757 15.7343 39.4208C15.9883 39.6659 16.3065 39.8724 16.6707 40.0285C17.0349 40.1846 17.438 40.2872 17.8569 40.3305C18.2759 40.3738 18.7025 40.3569 19.1125 40.2808C19.5224 40.2046 19.9077 40.0708 20.2462 39.8869C23.6408 38.0424 28.4113 34.442 30.8618 30.8965C31.1072 30.5409 31.2231 30.1457 31.1984 29.7486C31.1737 29.3514 31.0092 28.9654 30.7207 28.6271C30.4321 28.2889 30.0289 28.0097 29.5495 27.8159C29.07 27.6222 28.5302 27.5204 27.9811 27.5202Z" fill="#B562FE"/>
<path d="M20.0696 39.6608C23.2709 38.2608 27.6901 35.1481 30.856 30.912C31.1643 30.4665 31.2676 29.9613 31.1508 29.4703C31.0339 28.9792 30.7031 28.5282 30.2067 28.1831C27.7933 30.429 24.6242 33.0166 21.0314 31.969C21.2795 31.5011 21.4471 31.3798 22.852 29.4851C24.339 27.3175 24.6854 24.5875 24.02 22.2471C20.9847 25.8405 16.9811 25.3446 15.8179 37.471C16.878 40.0691 18.7485 40.4506 20.0696 39.6608Z" fill="#A037FC"/>
<path d="M37.6498 25.1869C37.0926 25.1866 36.5449 25.2909 36.0601 25.4897C35.5752 25.6884 35.1698 25.9748 34.8835 26.3209C31.4856 30.4217 27.7881 33.0864 19.6633 37.2887C19.0011 37.6574 18.5623 38.1978 18.4394 38.796C18.3165 39.3943 18.5191 40.0038 19.0044 40.496C19.4898 40.9883 20.2201 41.325 21.0414 41.435C21.8627 41.5451 22.711 41.4201 23.4075 41.0862C32.2477 36.5141 36.5381 33.3944 40.4096 28.7207C40.7028 28.3668 40.8612 27.9629 40.8685 27.5502C40.8758 27.1376 40.7319 26.7309 40.4513 26.3716C40.1708 26.0124 39.7636 25.7134 39.2715 25.5053C38.7793 25.2972 38.2197 25.1873 37.6498 25.1869Z" fill="#B562FE"/>
<path d="M40.4133 28.7219C40.8439 28.1984 40.9746 27.5737 40.7774 26.9813C37.2088 29.8431 32.8185 34.9601 24.7484 33.0759C22.9424 33.0479 21.4135 33.5998 20.6917 34.4794C20.102 35.1958 20.4049 36.0964 21.639 37.4929C32.1918 37.4054 36.9381 34.3908 40.4133 28.7219Z" fill="#A037FC"/>
<path d="M48.1525 25.7703C47.3276 25.7703 46.5043 25.9978 45.8744 26.4539C41.431 29.6704 36.4156 32.6408 28.5582 36.7054C27.8777 37.0691 27.422 37.612 27.2894 38.2169C27.1568 38.8218 27.3579 39.4401 27.8493 39.9386C28.3408 40.437 29.0832 40.7756 29.9163 40.8811C30.7494 40.9867 31.6064 40.8509 32.3024 40.5029C40.4675 36.2784 45.7213 33.1646 50.4306 29.7544C50.8817 29.4282 51.1889 29.0124 51.3135 28.5596C51.4381 28.1068 51.3744 27.6375 51.1305 27.211C50.8867 26.7844 50.4735 26.4199 49.9434 26.1634C49.4133 25.9069 48.79 25.7701 48.1525 25.7703Z" fill="#B562FE"/>
<path d="M51.3524 28.2972C47.961 28.5329 44.6663 29.1594 41.531 30.1919L38.7631 31.1031C35.9099 32.8029 32.6184 34.6077 28.5616 36.7054C27.8811 37.0691 27.4254 37.612 27.2928 38.2169C27.1602 38.8217 27.3613 39.4401 27.8528 39.9386C28.3442 40.437 29.0866 40.7755 29.9197 40.8811C30.7528 40.9867 31.6098 40.8509 32.3058 40.5029C40.4709 36.2784 45.7248 33.1646 50.434 29.7544C50.9947 29.3472 51.2911 28.8281 51.3524 28.2972Z" fill="#A037FC"/>
<path d="M56.9786 32.4601C56.9786 31.0648 55.4158 29.9343 53.4889 29.9343C49.4176 29.9343 45.3931 30.5655 41.6875 31.7858L37.0588 33.3095C34.706 34.0841 32.1558 34.4947 29.5714 34.515C26.987 34.5353 24.4251 34.1648 22.0497 33.4273C21.5794 33.282 21.1571 33.0662 20.8103 32.7942C20.4636 32.5221 20.2003 32.1999 20.0379 31.8489C19.8755 31.4979 19.8176 31.1259 19.8681 30.7575C19.9185 30.3891 20.0762 30.0326 20.3306 29.7115L22.2366 27.2965C23.8614 25.2359 24.4027 22.8193 23.7607 20.4925C23.6776 20.1922 23.5115 19.9072 23.2724 19.6546C23.0332 19.4021 22.7259 19.1872 22.369 19.0229C22.0121 18.8586 21.6129 18.7484 21.1956 18.6988C20.7783 18.6492 20.3514 18.6613 19.9407 18.7343C19.4074 18.8288 19.0014 19.1485 18.85 19.53L17.5063 22.9343L8.64361 30.6355C6.55137 32.4542 3.71432 33.7437 0.542944 34.3175L0 34.4155V45.9503L1.73356 46.3808C1.73356 46.3808 12.3685 43.4758 14.4356 43.3696L29.8346 42.5553C32.538 42.4153 46.2453 37.1023 46.2453 37.1023C48.1013 36.3556 57.2605 35.651 57.2605 34.4166C57.2605 33.7108 56.9786 32.4065 56.9786 32.4601Z" fill="#B562FE"/>
<path d="M56.956 32.3038C56.9608 32.3563 56.9769 32.4064 56.9769 32.4601C56.9771 33.0583 56.684 33.637 56.15 34.0934C55.616 34.5497 54.8757 34.854 54.0608 34.9521L50.4745 35.3849C48.3801 35.6381 46.3613 36.1491 44.5053 36.8958L36.4063 40.1543C34.0377 41.1085 31.4089 41.6748 28.7052 41.8133L13.3738 42.6066C11.3082 42.7147 9.28171 43.0708 7.37728 43.6601L0 45.9503V47.9103L8.40194 45.3028C10.3054 44.7114 12.3324 44.3552 14.3985 44.2493L29.7298 43.4559C32.4335 43.3175 35.0624 42.7512 37.4309 41.7969L45.53 38.5384C47.3855 37.7909 49.4046 37.2798 51.4992 37.0276L55.0855 36.5948C55.7196 36.5178 56.3119 36.3154 56.7972 36.01C57.2824 35.7046 57.6416 35.308 57.8352 34.864C58.0287 34.42 58.049 33.946 57.8939 33.4942C57.7387 33.0424 57.4142 32.6304 56.956 32.3038Z" fill="#A037FC"/>
<path d="M14.868 52.7733C14.956 52.7893 15.064 52.8053 15.192 52.8213C15.32 52.8293 15.44 52.8333 15.552 52.8333C15.824 52.8333 16.072 52.7933 16.296 52.7133C16.528 52.6333 16.724 52.5093 16.884 52.3413C17.052 52.1733 17.18 51.9573 17.268 51.6933C17.364 51.4213 17.412 51.0973 17.412 50.7213C17.412 50.0013 17.244 49.4613 16.908 49.1013C16.572 48.7333 16.124 48.5493 15.564 48.5493C15.452 48.5493 15.336 48.5533 15.216 48.5613C15.104 48.5693 14.988 48.5813 14.868 48.5973V52.7733ZM15.54 54.5253C15.404 54.5253 15.248 54.5213 15.072 54.5133C14.896 54.5053 14.712 54.4893 14.52 54.4653C14.336 54.4413 14.148 54.4093 13.956 54.3693C13.772 54.3373 13.6 54.2893 13.44 54.2253C13 54.0573 12.78 53.7653 12.78 53.3493V47.7453C12.78 47.5773 12.824 47.4493 12.912 47.3613C13.008 47.2653 13.136 47.1893 13.296 47.1333C13.64 47.0213 14.004 46.9493 14.388 46.9173C14.772 46.8773 15.116 46.8573 15.42 46.8573C16.044 46.8573 16.608 46.9333 17.112 47.0853C17.624 47.2373 18.06 47.4733 18.42 47.7933C18.788 48.1053 19.072 48.5013 19.272 48.9813C19.472 49.4613 19.572 50.0293 19.572 50.6853C19.572 51.3253 19.476 51.8853 19.284 52.3653C19.092 52.8373 18.816 53.2373 18.456 53.5653C18.104 53.8853 17.68 54.1253 17.184 54.2853C16.688 54.4453 16.14 54.5253 15.54 54.5253ZM20.4122 50.6853C20.4122 50.0613 20.5082 49.5093 20.7002 49.0293C20.9002 48.5493 21.1682 48.1493 21.5042 47.8293C21.8482 47.5013 22.2482 47.2533 22.7042 47.0853C23.1682 46.9173 23.6682 46.8333 24.2042 46.8333C24.7402 46.8333 25.2362 46.9173 25.6922 47.0853C26.1562 47.2533 26.5602 47.5013 26.9042 47.8293C27.2482 48.1493 27.5162 48.5493 27.7082 49.0293C27.9082 49.5093 28.0082 50.0613 28.0082 50.6853C28.0082 51.3093 27.9122 51.8653 27.7202 52.3533C27.5282 52.8333 27.2602 53.2373 26.9162 53.5653C26.5802 53.8853 26.1802 54.1293 25.7162 54.2973C25.2522 54.4653 24.7482 54.5493 24.2042 54.5493C23.6602 54.5493 23.1562 54.4653 22.6922 54.2973C22.2282 54.1213 21.8282 53.8693 21.4922 53.5413C21.1562 53.2133 20.8922 52.8093 20.7002 52.3293C20.5082 51.8493 20.4122 51.3013 20.4122 50.6853ZM22.5722 50.6853C22.5722 51.4133 22.7202 51.9573 23.0162 52.3173C23.3122 52.6773 23.7082 52.8573 24.2042 52.8573C24.7082 52.8573 25.1082 52.6773 25.4042 52.3173C25.7002 51.9573 25.8482 51.4133 25.8482 50.6853C25.8482 49.9653 25.7002 49.4253 25.4042 49.0653C25.1162 48.7053 24.7202 48.5253 24.2162 48.5253C23.7202 48.5253 23.3202 48.7053 23.0162 49.0653C22.7202 49.4173 22.5722 49.9573 22.5722 50.6853ZM29.2097 48.1773C29.2097 47.8333 29.3097 47.5613 29.5097 47.3613C29.7097 47.1613 29.9817 47.0613 30.3257 47.0613H34.2857C34.3417 47.1493 34.3897 47.2653 34.4297 47.4093C34.4777 47.5533 34.5017 47.7053 34.5017 47.8653C34.5017 48.1693 34.4337 48.3853 34.2977 48.5133C34.1697 48.6413 33.9977 48.7053 33.7817 48.7053H31.2497V49.8213H33.9497C34.0057 49.9093 34.0537 50.0253 34.0937 50.1693C34.1417 50.3053 34.1657 50.4533 34.1657 50.6133C34.1657 50.9173 34.1017 51.1333 33.9737 51.2613C33.8457 51.3893 33.6737 51.4533 33.4577 51.4533H31.2497V52.7133H34.3337C34.3897 52.8013 34.4377 52.9173 34.4777 53.0613C34.5257 53.2053 34.5497 53.3573 34.5497 53.5173C34.5497 53.8213 34.4817 54.0413 34.3457 54.1773C34.2177 54.3053 34.0457 54.3693 33.8297 54.3693H30.3257C29.9817 54.3693 29.7097 54.2693 29.5097 54.0693C29.3097 53.8693 29.2097 53.5973 29.2097 53.2533V48.1773ZM39.0987 53.7333C39.0347 53.7653 38.9147 53.7933 38.7387 53.8173C38.5707 53.8333 38.4067 53.8413 38.2467 53.8413C37.9187 53.8413 37.6707 53.7893 37.5027 53.6853C37.3347 53.5733 37.2507 53.3413 37.2507 52.9893V51.6693H35.4387C35.3827 51.5813 35.3347 51.4653 35.2947 51.3213C35.2627 51.1773 35.2467 51.0333 35.2467 50.8893C35.2467 50.6013 35.3107 50.3933 35.4387 50.2653C35.5667 50.1293 35.7387 50.0613 35.9547 50.0613H37.2507V48.0453C37.3307 48.0213 37.4507 47.9973 37.6107 47.9733C37.7787 47.9413 37.9427 47.9253 38.1027 47.9253C38.4227 47.9253 38.6667 47.9813 38.8347 48.0933C39.0107 48.2053 39.0987 48.4413 39.0987 48.8013V50.0613H40.8747C40.9147 50.1573 40.9547 50.2773 40.9947 50.4213C41.0427 50.5573 41.0667 50.7013 41.0667 50.8533C41.0667 51.1333 41.0027 51.3413 40.8747 51.4773C40.7467 51.6053 40.5787 51.6693 40.3707 51.6693H39.0987V53.7333Z" fill="#A037FC"/>
<path d="M52 5.95731C52 5.33711 51.3004 4.83427 50.4375 4.83427H47.7703C48.4605 4.3449 48.9023 3.70337 48.9023 2.91329C48.9023 1.94045 48.125 0.883667 45.943 0.883667C43.0719 0.883667 40.6734 3.08091 39.5465 4.31261C38.4188 3.08119 35.9469 0.883948 33.0762 0.883948C30.8941 0.883948 30.1168 1.94073 30.1168 2.91357C30.1168 3.70336 30.5707 4.34518 31.275 4.83455H28.5625C27.6996 4.83455 27 5.33739 27 5.95759V9.31915H28.5762V16.6288C28.5762 17.249 29.2758 17.7518 30.1387 17.7518H48.8809C49.7437 17.7518 50.4434 17.249 50.4434 16.6288V9.31887H52V5.95731H52ZM45.943 2.00699C46.909 2.00699 47.3398 2.29872 47.3398 2.91359C47.3398 4.16102 45.4027 4.83398 43.5809 4.83398H40.9359C42.0461 3.64889 44 2.00699 45.943 2.00699ZM33.0761 2.00701C35.0195 2.00701 37.0472 3.64891 38.1574 4.83372H35.5117C33.6898 4.83372 31.6792 4.14333 31.6792 2.8959C31.6792 2.28132 32.1101 2.00701 33.0761 2.00701ZM50.4375 8.19582H40.2812V5.95731H50.4375V8.19582ZM28.5625 5.95731H38.7187V8.19582H28.5625V5.95731ZM30.1386 9.31887H38.7187V16.6285H30.1386V9.31887ZM48.8812 16.6285H40.2812V9.31887H48.8812V16.6285Z" fill="#A037FC"/>
</svg>
